%TF.GenerationSoftware,KiCad,Pcbnew,(6.0.5)*%
%TF.CreationDate,2023-01-03T21:16:04-06:00*%
%TF.ProjectId,NFC_BusinessCard,4e46435f-4275-4736-996e-657373436172,rev?*%
%TF.SameCoordinates,Original*%
%TF.FileFunction,Profile,NP*%
%FSLAX46Y46*%
G04 Gerber Fmt 4.6, Leading zero omitted, Abs format (unit mm)*
G04 Created by KiCad (PCBNEW (6.0.5)) date 2023-01-03 21:16:04*
%MOMM*%
%LPD*%
G01*
G04 APERTURE LIST*
%TA.AperFunction,Profile*%
%ADD10C,0.050000*%
%TD*%
G04 APERTURE END LIST*
D10*
X135674100Y-96812100D02*
X135674100Y-80048100D01*
X137706100Y-78016100D02*
G75*
G03*
X135674100Y-80048100I0J-2032000D01*
G01*
X128943100Y-96939100D02*
X128943100Y-98844100D01*
X187871100Y-131991100D02*
G75*
G03*
X191300099Y-128562101I-97900J3526900D01*
G01*
X105702100Y-128562100D02*
X105702100Y-81445100D01*
X124752100Y-80048100D02*
G75*
G03*
X122720100Y-78016100I-2032000J0D01*
G01*
X133642100Y-98844100D02*
G75*
G03*
X135674100Y-96812100I0J2032000D01*
G01*
X131483100Y-98844100D02*
X133642100Y-98844100D01*
X191300100Y-81445100D02*
G75*
G03*
X187871100Y-78016100I-3526900J-97900D01*
G01*
X133134100Y-95669100D02*
X133134100Y-79413100D01*
X187871100Y-131991100D02*
X109131100Y-131991100D01*
X124752100Y-96812100D02*
X124752100Y-80048100D01*
X126784100Y-98844100D02*
X128943100Y-98844100D01*
X127292100Y-95669100D02*
X127292100Y-79413100D01*
X137706100Y-78016100D02*
X187871100Y-78016100D01*
X124752100Y-96812100D02*
G75*
G03*
X126784100Y-98844100I2032000J0D01*
G01*
X133134100Y-79413100D02*
G75*
G03*
X131737100Y-78016100I-1397000J0D01*
G01*
X128181100Y-96558100D02*
X128562100Y-96558100D01*
X128943100Y-96939100D02*
G75*
G03*
X128562100Y-96558100I-381000J0D01*
G01*
X109131100Y-78016098D02*
G75*
G03*
X105702099Y-81445099I97900J-3526902D01*
G01*
X131483100Y-96939100D02*
X131483100Y-98844100D01*
X131864100Y-96558100D02*
X132245100Y-96558100D01*
X127292100Y-95669100D02*
G75*
G03*
X128181100Y-96558100I889000J0D01*
G01*
X128689100Y-78016100D02*
X131737100Y-78016100D01*
X131864100Y-96558100D02*
G75*
G03*
X131483100Y-96939100I0J-381000D01*
G01*
X109131100Y-78016100D02*
X122720100Y-78016100D01*
X105702099Y-128562100D02*
G75*
G03*
X109131098Y-131991100I3526901J97900D01*
G01*
X132245100Y-96558100D02*
G75*
G03*
X133134100Y-95669100I0J889000D01*
G01*
X191300100Y-81445100D02*
X191300100Y-128562100D01*
X128689100Y-78016100D02*
G75*
G03*
X127292100Y-79413100I0J-1397000D01*
G01*
M02*
