M48
; DRILL file {KiCad (6.0.5)} date Fri Jan  6 16:04:04 2023
; FORMAT={-:-/ absolute / inch / decimal}
; #@! TF.CreationDate,2023-01-06T16:04:04-06:00
; #@! TF.GenerationSoftware,Kicad,Pcbnew,(6.0.5)
; #@! TF.FileFunction,NonPlated,1,2,NPTH
FMAT,2
INCH
; #@! TA.AperFunction,NonPlated,NPTH,ComponentDrill
T1C0.0197
; #@! TA.AperFunction,NonPlated,NPTH,ComponentDrill
T2C0.0454
%
G90
G05
T1
X2.9595Y-1.1291
X2.9595Y-1.1882
X2.9625Y-3.3351
X2.9625Y-3.3942
X2.989Y-1.1291
X2.989Y-1.1882
X2.992Y-3.3351
X2.992Y-3.3942
X3.0185Y-1.1291
X3.0185Y-1.1882
X3.0215Y-3.3351
X3.0215Y-3.3942
X5.3575Y-1.1291
X5.3575Y-1.1882
X5.3655Y-3.3343
X5.3655Y-3.3934
X5.387Y-1.1291
X5.387Y-1.1882
X5.395Y-3.3343
X5.395Y-3.3934
X5.4165Y-1.1291
X5.4165Y-1.1882
X5.4245Y-3.3343
X5.4245Y-3.3934
T2
X2.7297Y-1.0223
X2.7297Y-3.5026
X5.8596Y-1.0223
X5.8596Y-3.5026
T0
M30
