%TF.GenerationSoftware,KiCad,Pcbnew,(6.0.5)*%
%TF.CreationDate,2023-01-16T00:14:01-06:00*%
%TF.ProjectId,NFC_BusinessCard,4e46435f-4275-4736-996e-657373436172,1*%
%TF.SameCoordinates,Original*%
%TF.FileFunction,Profile,NP*%
%FSLAX46Y46*%
G04 Gerber Fmt 4.6, Leading zero omitted, Abs format (unit mm)*
G04 Created by KiCad (PCBNEW (6.0.5)) date 2023-01-16 00:14:01*
%MOMM*%
%LPD*%
G01*
G04 APERTURE LIST*
%TA.AperFunction,Profile*%
%ADD10C,0.050000*%
%TD*%
G04 APERTURE END LIST*
D10*
X66497514Y-28413555D02*
X66500000Y-20450000D01*
X66600000Y-94450000D02*
X152150000Y-94500000D01*
X66500000Y-20450000D02*
X152150000Y-20500000D01*
X96507614Y-49254255D02*
X96507614Y-32490255D01*
X98539614Y-30458314D02*
G75*
G03*
X96507614Y-32490255I-14J-2031986D01*
G01*
X89776614Y-49381255D02*
X89776614Y-51286255D01*
X148704616Y-84433311D02*
G75*
G03*
X152133613Y-81004256I-97916J3526911D01*
G01*
X134823514Y-28388155D02*
X77927514Y-28413555D01*
X148704614Y-30458255D02*
X138836714Y-30445555D01*
X66535614Y-81004255D02*
X66535614Y-33887255D01*
X73993514Y-86487542D02*
X66599114Y-86503355D01*
X135033514Y-86462294D02*
G75*
G03*
X135043514Y-84422155I-14J1020094D01*
G01*
X73993514Y-86487632D02*
G75*
G03*
X73995315Y-84436770I-14J1025432D01*
G01*
X85585645Y-32490255D02*
G75*
G03*
X83553614Y-30458255I-2032045J-45D01*
G01*
X94475614Y-51286314D02*
G75*
G03*
X96507614Y-49254255I-14J2032014D01*
G01*
X73914314Y-30445645D02*
G75*
G03*
X73914314Y-28413555I-14J1016045D01*
G01*
X152146314Y-28388155D02*
X138836714Y-28413555D01*
X92316614Y-51286255D02*
X94475614Y-51286255D01*
X66599114Y-86503355D02*
X66600000Y-94450000D01*
X73995315Y-84436770D02*
X69964612Y-84433255D01*
X152133644Y-33887254D02*
G75*
G03*
X148704614Y-30458255I-3526944J-97946D01*
G01*
X93967614Y-48111255D02*
X93967614Y-31855255D01*
X138836714Y-28413645D02*
G75*
G03*
X138836714Y-30445555I-14J-1015955D01*
G01*
X85585614Y-49254255D02*
X85585614Y-32490255D01*
X152146314Y-86452555D02*
X152150000Y-94500000D01*
X87617614Y-51286255D02*
X89776614Y-51286255D01*
X152150000Y-20500000D02*
X152146314Y-28388155D01*
X135033514Y-86462204D02*
X77993514Y-86492155D01*
X69964614Y-30458255D02*
X73914314Y-30445555D01*
X148704614Y-84433255D02*
X139033514Y-84422155D01*
X83553614Y-30458255D02*
X77927514Y-30445555D01*
X88125614Y-48111255D02*
X88125614Y-31855255D01*
X98539614Y-30458255D02*
X134823514Y-30470955D01*
X139033514Y-84422245D02*
G75*
G03*
X139033514Y-86462155I-14J-1019955D01*
G01*
X77993514Y-84432245D02*
G75*
G03*
X77993514Y-86492155I-14J-1029955D01*
G01*
X85585645Y-49254255D02*
G75*
G03*
X87617614Y-51286255I2031955J-45D01*
G01*
X73914314Y-28413555D02*
X66497514Y-28413555D01*
X93967645Y-31855255D02*
G75*
G03*
X92570614Y-30458255I-1397045J-45D01*
G01*
X89014614Y-49000255D02*
X89395614Y-49000255D01*
X89776645Y-49381255D02*
G75*
G03*
X89395614Y-49000255I-381045J-45D01*
G01*
X69964614Y-30458253D02*
G75*
G03*
X66535613Y-33887254I97896J-3526897D01*
G01*
X92316614Y-49381255D02*
X92316614Y-51286255D01*
X92697614Y-49000255D02*
X93078614Y-49000255D01*
X88125645Y-48111255D02*
G75*
G03*
X89014614Y-49000255I888955J-45D01*
G01*
X89522614Y-30458255D02*
X92570614Y-30458255D01*
X92697614Y-49000314D02*
G75*
G03*
X92316614Y-49381255I-14J-380986D01*
G01*
X134823514Y-30471045D02*
G75*
G03*
X134823514Y-28388155I-14J1041445D01*
G01*
X139033514Y-86462155D02*
X152146314Y-86452555D01*
X66535644Y-81004254D02*
G75*
G03*
X69964612Y-84433255I3526856J97854D01*
G01*
X93078614Y-49000314D02*
G75*
G03*
X93967614Y-48111255I-14J889014D01*
G01*
X152133614Y-33887255D02*
X152133614Y-81004255D01*
X77927514Y-28413645D02*
G75*
G03*
X77927514Y-30445555I-14J-1015955D01*
G01*
X89522614Y-30458314D02*
G75*
G03*
X88125614Y-31855255I-14J-1396986D01*
G01*
X135043514Y-84422155D02*
X77993514Y-84432155D01*
M02*
